<svg width="24" height="24" viewBox="0 0 24 24" fill="none" xmlns="http://www.w3.org/2000/svg">
<path d="M11.0221 12.2856C11.2904 12.5582 11.6452 12.6923 12 12.6923C12.3548 12.6923 12.7087 12.5571 12.9787 12.2867L19.9018 5.36358C20.4427 4.82272 20.4427 3.94651 19.9018 3.40565C19.3609 2.86478 18.4847 2.86478 17.9439 3.40565L12 9.35192L6.05609 3.40587C5.51522 2.865 4.63902 2.865 4.09815 3.40587C3.55729 3.94673 3.55729 4.82293 4.09815 5.3638L11.0221 12.2856ZM17.9452 11.7144L12 17.6596L6.05609 11.7144C5.51522 11.1736 4.63902 11.1736 4.09815 11.7144C3.55729 12.2553 3.55729 13.1315 4.09815 13.6724L11.0212 20.5954C11.2904 20.8659 11.6452 21 12 21C12.3548 21 12.7087 20.8648 12.9787 20.5944L19.9018 13.6713C20.4427 13.1304 20.4427 12.2542 19.9018 11.7133C19.3609 11.1725 18.486 11.1736 17.9452 11.7144Z" fill="#008292"/>
</svg>
