<svg width="24" height="24" viewBox="0 0 24 24" fill="none" xmlns="http://www.w3.org/2000/svg">
<path d="M20.7362 13.1645C20.3846 12.8129 19.8151 12.8129 19.4635 13.1645L18.3004 14.3289V9.74983C18.3004 8.50942 17.2907 7.49966 16.0503 7.49966H12.45C11.953 7.49966 11.5499 7.90216 11.5499 8.39973C11.5499 8.8973 11.953 9.29979 12.45 9.29979H16.0503C16.2978 9.29979 16.5003 9.50231 16.5003 9.74983V14.3289L15.3364 13.165C14.9848 12.8134 14.4152 12.8134 14.0636 13.165C13.7121 13.5166 13.7121 14.0862 14.0636 14.4378L16.7638 17.138C16.9391 17.3132 17.1697 17.4004 17.4004 17.4004C17.631 17.4004 17.8608 17.3125 18.0366 17.1367L20.7368 14.4365C21.0878 14.0842 21.0878 13.516 20.7362 13.1645ZM11.5499 14.7002H7.94966C7.70215 14.7002 7.49963 14.4977 7.49963 14.2502V9.67388L8.66353 10.8378C9.01512 11.1894 9.58469 11.1894 9.93628 10.8378C10.2879 10.4862 10.2879 9.91662 9.93628 9.56503L7.23608 6.86483C7.06085 6.68763 6.83021 6.59959 6.59956 6.59959C6.36892 6.59959 6.13828 6.68763 5.96389 6.86343L3.26369 9.56363C2.9121 9.91522 2.9121 10.4848 3.26369 10.8364C3.61528 11.188 4.18485 11.188 4.53644 10.8364L5.6995 9.67388V14.2502C5.6995 15.4906 6.70926 16.5003 7.94966 16.5003H11.5499C12.0469 16.5003 12.45 16.0978 12.45 15.6003C12.45 15.1027 12.0478 14.7002 11.5499 14.7002Z" fill="#008292"/>
</svg>
