<svg width="16" height="16" viewBox="0 0 16 16" fill="none" xmlns="http://www.w3.org/2000/svg">
<path d="M13.7487 8.60571L9.4628 12.8916C9.29672 13.0604 9.07706 13.1434 8.85741 13.1434C8.63776 13.1434 8.41864 13.0597 8.25149 12.8923C7.91665 12.5575 7.91665 12.015 8.25149 11.6802L11.0754 8.85751H2.85714C2.38381 8.85751 2 8.47446 2 8.00033C2 7.5262 2.38381 7.14315 2.85714 7.14315H11.0754L8.25203 4.3198C7.91719 3.98497 7.91719 3.44253 8.25203 3.10769C8.58686 2.77286 9.1293 2.77286 9.46414 3.10769L13.75 7.3936C14.0835 7.72978 14.0835 8.27088 13.7487 8.60571Z" fill="black"/>
</svg>
