<svg width="20" height="20" viewBox="0 0 20 20" fill="none" xmlns="http://www.w3.org/2000/svg">
<path d="M7.18765 14.6876H5.31259C4.7949 14.6876 4.37506 14.2678 4.37506 13.7501V6.24985C4.37506 5.73215 4.7949 5.31232 5.31259 5.31232H7.18765C7.70534 5.31232 8.12518 4.89248 8.12518 4.37479C8.12518 3.85709 7.70622 3.43726 7.18765 3.43726H5.31259C3.75922 3.43726 2.5 4.69648 2.5 6.24985V13.7501C2.5 15.3035 3.75922 16.5627 5.31259 16.5627H7.18765C7.70534 16.5627 8.12518 16.1428 8.12518 15.6251C8.12518 15.1075 7.70622 14.6876 7.18765 14.6876ZM17.2251 9.33783L13.475 5.58771C13.1084 5.2212 12.5152 5.22179 12.1492 5.58771C11.783 5.95394 11.783 6.54722 12.1492 6.91344L14.3012 9.06243H8.12518C7.60661 9.06243 7.18765 9.48139 7.18765 9.99996C7.18765 10.5185 7.6069 10.9375 8.12518 10.9375H14.3012L12.1513 13.0874C11.7851 13.4536 11.7851 14.0469 12.1513 14.4131C12.5175 14.7793 13.1108 14.7793 13.477 14.4131L17.2271 10.663C17.5913 10.2959 17.5913 9.70406 17.2251 9.33783Z" fill="white"/>
</svg>
