<svg width="16" height="16" viewBox="0 0 16 16" fill="none" xmlns="http://www.w3.org/2000/svg">
<path d="M7.7049 2.06064C7.8924 1.97979 8.10802 1.97979 8.29552 2.06064L13.5455 4.31071C13.8736 4.45156 14.0565 4.80313 13.9838 5.15C13.9135 5.49922 13.6065 5.72891 13.2291 5.75V5.9375C13.2291 6.24922 12.9994 6.5 12.6666 6.5H3.29162C3.00193 6.5 2.72912 6.24922 2.72912 5.9375V5.75C2.3942 5.72891 2.08712 5.49922 2.01551 5.15C1.94392 4.80313 2.12746 4.45156 2.45467 4.31071L7.7049 2.06064ZM8.00021 5C8.41506 5 8.75021 4.66485 8.75021 4.25C8.75021 3.83586 8.41506 3.5 8.00021 3.5C7.58537 3.5 7.25021 3.83586 7.25021 4.25C7.25021 4.66485 7.58537 5 8.00021 5ZM4.97912 11.75H5.91662V7.25H7.41662V11.75H8.56271V7.25H10.0627V11.75H11.0002V7.25H12.5002V11.8508C12.5143 11.8578 12.5283 11.8461 12.5424 11.8766L13.6674 12.6266C13.9416 12.8094 14.0635 13.1516 13.9674 13.468C13.8713 13.7844 13.5807 14 13.2502 14H2.72912C2.41974 14 2.12814 13.7844 2.03237 13.468C1.93658 13.1516 2.05916 12.8094 2.3342 12.6266L3.4592 11.8766C3.47256 11.8461 3.48639 11.8578 3.47912 11.8508V7.25H4.97912V11.75Z" fill="#008292"/>
</svg>
