<svg width="20" height="20" viewBox="0 0 20 20" fill="none" xmlns="http://www.w3.org/2000/svg">
<path d="M9.78157 7.51028C9.85449 7.50246 9.92741 7.49986 10.0003 7.49986C11.3806 7.49986 12.5004 8.59626 12.5004 9.99997C12.5004 11.3802 11.3806 12.5001 10.0003 12.5001C8.59662 12.5001 7.50022 11.3802 7.50022 9.99997C7.50022 9.92705 7.50282 9.85413 7.51064 9.78121C7.75283 9.8984 8.0341 9.99997 8.33359 9.99997C9.2529 9.99997 10.0003 9.25254 10.0003 8.33323C10.0003 8.03374 9.89876 7.75247 9.78157 7.51028ZM15.0162 6.26543C16.235 7.39569 17.0501 8.72647 17.4355 9.67964C17.5215 9.88538 17.5215 10.1146 17.4355 10.3203C17.0501 11.25 16.235 12.5808 15.0162 13.7345C13.7896 14.8752 12.1046 15.8336 10.0003 15.8336C7.89607 15.8336 6.2111 14.8752 4.98501 13.7345C3.7662 12.5808 2.95159 11.25 2.56409 10.3203C2.47864 10.1146 2.47864 9.88538 2.56409 9.67964C2.95159 8.72647 3.7662 7.39569 4.98501 6.26543C6.2111 5.1258 7.89607 4.16638 10.0003 4.16638C12.1046 4.16638 13.7896 5.1258 15.0162 6.26543ZM10.0003 6.24981C7.92993 6.24981 6.25017 7.92957 6.25017 9.99997C6.25017 12.0704 7.92993 13.7501 10.0003 13.7501C12.0707 13.7501 13.7505 12.0704 13.7505 9.99997C13.7505 7.92957 12.0707 6.24981 10.0003 6.24981Z" fill="currentColor"/>
</svg>
