<svg width="52" height="52" viewBox="0 0 52 52" fill="none" xmlns="http://www.w3.org/2000/svg">
<path d="M26.0401 25.2404C25.0325 25.2404 24.2835 26.0579 24.2835 26.997C24.369 32.491 23.6657 37.7873 22.1733 43.0798C21.9034 43.8934 22.276 45.4675 23.8653 45.4675C24.6637 45.4675 25.3952 44.9447 25.6234 44.1368C26.6499 40.4967 27.9122 34.6011 27.8666 27.0654C27.8651 26.0617 27.0514 25.2404 26.0401 25.2404ZM25.9716 19.0278C21.2494 19.0126 18.0633 22.6018 18.1317 26.7156C18.1888 30.3557 17.8466 34.0057 17.115 37.5516C16.9059 38.4717 17.5427 39.4997 18.5309 39.7089C19.451 39.9085 20.4791 39.2811 20.6882 38.293C21.4768 34.4818 21.838 30.5671 21.781 26.727C21.7513 24.6777 23.2265 22.6626 25.9184 22.6778C28.3038 22.7158 30.271 24.607 30.2999 26.8981C30.3664 30.4797 30.0908 34.2171 29.4924 37.8101C29.3308 38.7302 30.0056 39.7393 31.0033 39.9104C32.5142 40.1575 33.0374 38.7606 33.0944 38.3994C33.7217 34.6658 34.0161 30.7116 33.9499 26.9095C33.88 22.5866 30.306 19.0886 25.9716 19.0278ZM17.5614 17.5222C16.7706 16.8834 15.6299 16.9975 14.9836 17.7807C13.0483 20.176 11.9936 23.2101 12.0408 26.2974C12.0883 29.1581 11.8602 32.0287 11.3565 34.8217C11.1759 35.7418 11.8317 36.7607 12.8203 36.9409C14.3502 37.2071 14.8825 35.8102 14.881 35.468C15.4227 32.4362 15.6795 29.3375 15.6223 26.2366C15.6604 23.9705 16.3904 21.8413 17.7515 20.0924C18.4587 19.3015 18.3446 18.1609 17.5614 17.5222ZM25.8119 12.7802C24.7093 12.7521 23.5307 12.8851 22.3977 13.1604C21.419 13.3201 20.8107 14.3086 21.0388 15.3557C21.2764 16.3344 22.187 16.9336 23.1756 16.7055C24.0858 16.5184 24.9451 16.4196 25.8347 16.4272C31.566 16.5127 36.2981 21.1037 36.3969 26.6624C36.435 29.5421 36.2924 32.3731 35.9693 35.3007C35.8552 36.2984 36.5775 37.1333 37.5753 37.3158C38.849 37.3995 39.5143 36.4132 39.5904 35.7098C39.9421 32.6872 40.0941 29.6455 40.0466 26.6076C39.9177 19.1038 33.5682 12.8943 25.8119 12.7802ZM45.0505 22.0162C44.8319 21.0961 43.8711 20.4004 42.8734 20.6186C41.9533 20.8372 41.2674 21.8162 41.4857 22.7949C41.8468 24.4298 41.8564 25.6465 41.8468 27.4806C41.8374 28.4881 42.6453 29.3147 43.6528 29.3246C44.6505 29.3246 45.487 28.517 45.4969 27.5095C45.5067 25.8335 45.5219 24.1606 45.0505 22.0162ZM41.9328 15.1193C38.2257 9.84424 32.169 6.62539 25.7131 6.53414C20.4099 6.46761 15.5083 8.42302 11.8583 12.0821C8.33222 15.6082 6.43346 20.2947 6.50951 25.283L6.5 26.9179C6.53801 27.9323 7.32695 28.7687 8.33451 28.7992C8.35352 28.8068 8.37253 28.8068 8.39154 28.8068C9.31164 28.8068 10.1876 28.0182 10.1481 27.0297L10.1576 25.2336C10.1686 21.2406 11.6796 17.4842 14.5045 14.663C17.4603 11.7164 21.4525 10.1294 25.7359 10.1864C31.0109 10.194 35.9787 12.895 39.0128 17.2104C39.5925 18.037 40.7237 18.237 41.5503 17.6571C42.313 17.0735 42.5791 15.9481 41.9328 15.1193Z" fill="currentColor"/>
</svg>
