<svg width="96" height="96" viewBox="0 0 96 96" fill="none" xmlns="http://www.w3.org/2000/svg">
  <!-- Huella vectorial: trazos redondeados, escala nítida en cualquier tamaño -->
  <g stroke="currentColor" stroke-width="3.15" stroke-linecap="round" stroke-linejoin="round">
    <path d="M48 15c-9.2 0-17 5-20.2 12.4" />
    <path d="M68.2 27.4C65 20 57.2 15 48 15" />
    <path d="M22.5 34.5C20.8 30.6 20 26.4 20 22" />
    <path d="M76 22c0 4.4-.8 8.6-2.5 12.5" />
    <path d="M18 48c0-8.2 2.8-15.8 7.5-21.8" />
    <path d="M70.5 26.2c4.7 6 7.5 13.6 7.5 21.8" />
    <path d="M15.5 52c-.3-1.3-.5-2.7-.5-4 0-3.6.6-7.1 1.8-10.4" />
    <path d="M79.2 37.6c1.2 3.3 1.8 6.8 1.8 10.4 0 1.3-.2 2.7-.5 4" />
    <path d="M26 54.5c-2.8-4.5-4.5-9.8-4.5-15.5 0-5.2 1.3-10.1 3.6-14.4" />
    <path d="M70.9 24.6c2.3 4.3 3.6 9.2 3.6 14.4 0 5.7-1.7 11-4.5 15.5" />
    <path d="M48 28c-11 0-20 9-20 20 0 4.2 1.3 8.1 3.5 11.3" />
    <path d="M64.5 59.3c2.2-3.2 3.5-7.1 3.5-11.3 0-11-9-20-20-20" />
    <path d="M32.5 42c-1.2 2.4-1.8 5.1-1.8 8 0 6.8 3.4 12.8 8.6 16.4" />
    <path d="M56.7 66.4c5.2-3.6 8.6-9.6 8.6-16.4 0-2.9-.6-5.6-1.8-8" />
    <path d="M40.5 48.5c-.8 2.8-.3 5.8 1.4 8.2" />
    <path d="M54.1 56.7c1.7-2.4 2.2-5.4 1.4-8.2" />
    <path d="M48 52v17.5" />
    <path d="M38 72.5c2.8 3.8 7.3 6.2 12.5 6.5" />
    <path d="M58 72.5c-1.8-2.4-3.2-5.2-4-8.2" />
    <path d="M30 64c1.8 5.5 5.4 10.2 10.2 13.2" />
    <path d="M55.8 77.2c4.8-3 8.4-7.7 10.2-13.2" />
  </g>
</svg>
