<svg width="24" height="24" viewBox="0 0 24 24" fill="none" xmlns="http://www.w3.org/2000/svg">
<path d="M11.9972 13.8C13.6118 13.8 14.8969 12.4905 14.8969 10.875C14.8969 9.25949 13.5879 7.94999 11.9972 7.94999C10.3825 7.94999 9.0975 9.25949 9.0975 10.875C9.07219 12.4894 10.3828 13.8 11.9972 13.8ZM13.4034 14.7H10.5966C8.38875 14.7 6.6 16.379 6.6 18.449C6.6 18.8653 6.95719 19.2 7.39875 19.2H16.6012C17.0428 19.2 17.4 18.8653 17.4 18.449C17.4 16.379 15.6112 14.7 13.4034 14.7ZM17.4 9.29999C18.6426 9.29999 19.65 8.29255 19.65 7.04999C19.65 5.80743 18.6431 4.79999 17.4 4.79999C16.1574 4.79999 15.15 5.80743 15.15 7.04999C15.15 8.29255 16.1569 9.29999 17.4 9.29999ZM8.17219 10.875C8.17219 10.7217 8.19982 10.576 8.21744 10.4275C7.91062 10.259 7.57312 10.2 7.21594 10.2H5.47725C4.10925 10.2 3 11.3756 3 12.824C3 13.1137 3.22182 13.35 3.49556 13.35H9.1065C8.53219 12.6806 8.17219 11.8228 8.17219 10.875ZM6.6 9.29999C7.84256 9.29999 8.85 8.29255 8.85 7.04999C8.85 5.80743 7.84312 4.79999 6.6 4.79999C5.35744 4.79999 4.35 5.80743 4.35 7.04999C4.35 8.29255 5.35744 9.29999 6.6 9.29999ZM18.5222 10.2H16.7829C16.4229 10.2 16.0832 10.2854 15.7744 10.4317C15.7913 10.5797 15.8194 10.7231 15.8194 10.875C15.8194 11.8231 15.4599 12.6809 14.8868 13.35H20.5033C20.7778 13.35 21 13.1137 21 12.824C21 11.3756 19.8919 10.2 18.5222 10.2Z" fill="#008292"/>
</svg>
