<svg width="16" height="16" viewBox="0 0 16 16" fill="none" xmlns="http://www.w3.org/2000/svg">
<path d="M5 5C5 3.3432 6.34297 2 8 2C9.65703 2 11 3.3432 11 5V5.375C11 7.03203 9.65703 8.375 8 8.375C6.34297 8.375 5 7.03203 5 5.375V5ZM9.71797 4.25H9.6875C9.20703 4.25 8.78047 4.025 8.50625 3.67484C8.18516 4.24227 7.57344 4.625 6.875 4.625H6.1625C6.13906 4.74688 6.125 4.87109 6.125 5V5.375C6.125 6.41094 6.96406 7.25 8 7.25C9.03594 7.25 9.875 6.41094 9.875 5.375V5C9.875 4.73281 9.81875 4.47969 9.71797 4.25ZM9.71563 9.50703C11.6891 9.63359 13.25 11.2742 13.25 13.2805C13.25 13.6766 12.9266 14 12.5305 14H3.47C3.07227 14 2.75 13.6766 2.75 13.2805C2.75 11.2742 4.31141 9.63359 6.28438 9.50703L8 11.9375L9.71563 9.50703Z" fill="#008292"/>
</svg>
