<svg width="16" height="16" viewBox="0 0 16 16" fill="none" xmlns="http://www.w3.org/2000/svg">
<path d="M6.2 8.00001C7.52563 8.00001 8.6 6.92545 8.6 5.60001C8.6 4.27457 7.52563 3.20001 6.2 3.20001C4.87438 3.20001 3.8 4.27457 3.8 5.60001C3.8 6.92545 4.87438 8.00001 6.2 8.00001ZM7.15063 8.90001H5.24938C3.45519 8.90001 2 10.355 2 12.1494C2 12.5094 2.291 12.8 2.64988 12.8H9.7505C10.1094 12.8 10.4 12.5094 10.4 12.1494C10.4 10.355 8.945 8.90001 7.15063 8.90001ZM13.55 6.95001H12.65V6.05001C12.65 5.80251 12.4494 5.60001 12.2 5.60001C11.9506 5.60001 11.75 5.80157 11.75 6.05001V6.95001H10.85C10.6025 6.95001 10.4 7.15251 10.4 7.40001C10.4 7.64751 10.6016 7.85001 10.85 7.85001H11.75V8.75001C11.75 8.99939 11.9525 9.20001 12.2 9.20001C12.4475 9.20001 12.65 8.99845 12.65 8.75001V7.85001H13.55C13.7994 7.85001 14 7.64939 14 7.40001C14 7.15064 13.7994 6.95001 13.55 6.95001Z" fill="#008292"/>
</svg>
