<svg width="16" height="16" viewBox="0 0 16 16" fill="none" xmlns="http://www.w3.org/2000/svg">
<path d="M12.5 2.75C12.9148 2.75 13.25 3.08586 13.25 3.5C13.25 3.91414 12.9148 4.25 12.5 4.25H3.875C3.66781 4.25 3.5 4.41875 3.5 4.625C3.5 4.83125 3.66781 5 3.875 5H12.5C13.3273 5 14 5.67266 14 6.5V11.75C14 12.5773 13.3273 13.25 12.5 13.25H3.5C2.67148 13.25 2 12.5773 2 11.75V4.25C2 3.42148 2.67148 2.75 3.5 2.75H12.5ZM11.75 9.875C12.1648 9.875 12.5 9.53984 12.5 9.125C12.5 8.71016 12.1648 8.375 11.75 8.375C11.3352 8.375 11 8.71016 11 9.125C11 9.53984 11.3352 9.875 11.75 9.875Z" fill="#008292"/>
</svg>
